<svg xmlns="http://www.w3.org/2000/svg" viewBox="0 110 300 80">
    <path d="M110.826 167.054h6.926l2.926-10.112 1.625-6.178h.13l1.691 6.178 2.927 10.112h7.055l6.6-23.898h-6.242l-2.309 9.656-1.658 7.284h-.163l-1.983-7.284-2.764-9.656h-6.145l-2.73 9.656-1.92 7.284h-.162l-1.658-7.284-2.309-9.656h-6.502Zm37.261-26.434c2.731 0 3.902-1.43 3.902-3.35v-.975c0-1.918-1.17-3.349-3.902-3.349-2.731 0-3.934 1.431-3.934 3.35v.975c0 1.918 1.203 3.349 3.934 3.349Zm-3.381 26.434h6.73v-23.898h-6.73Zm25.393 0v-5.235h-4.357V148.39h4.715v-5.235h-4.715v-6.47h-6.048v3.934c0 1.625-.552 2.536-2.373 2.536h-1.69v5.235h3.38v11.705c0 4.552 2.44 6.958 7.089 6.958Zm9.462 0h6.925l2.926-10.112 1.626-6.178h.13l1.69 6.178 2.927 10.112h7.055l6.6-23.898h-6.242l-2.308 9.656-1.659 7.284h-.162l-1.983-7.284-2.764-9.656h-6.145l-2.731 9.656-1.919 7.284h-.162l-1.659-7.284-2.308-9.656h-6.503Zm37.26-26.434c2.732 0 3.902-1.43 3.902-3.35v-.975c0-1.918-1.17-3.349-3.902-3.349-2.73 0-3.934 1.431-3.934 3.35v.975c0 1.918 1.203 3.349 3.934 3.349Zm-3.381 26.434h6.73v-23.898h-6.73Zm13.006 0h6.763v-6.73l2.99-3.382 5.366 10.112h8.03l-8.876-14.762 7.966-9.136h-7.478l-4.78 5.69-2.958 4.422h-.26v-19.899h-6.763Zm29.652-26.434c2.732 0 3.902-1.43 3.902-3.35v-.975c0-1.918-1.17-3.349-3.902-3.349-2.73 0-3.934 1.431-3.934 3.35v.975c0 1.918 1.203 3.349 3.934 3.349Zm-3.381 26.434h6.73v-23.898h-6.73ZM55 138.289h22.29v22.292l13.87 13.869v-50.03H41.13zm21.161 23.422H53.869v-22.292L40 125.55v50.03h50.03z"/>
</svg>
